<svg version="1.1" viewBox="0.0 0.0 48.0 48.0" fill="none" stroke="none" stroke-linecap="square" stroke-miterlimit="10" xmlns:xlink="http://www.w3.org/1999/xlink" xmlns="http://www.w3.org/2000/svg"><clipPath id="p.0"><path d="m0 0l48.0 0l0 48.0l-48.0 0l0 -48.0z" clip-rule="nonzero"/></clipPath><g clip-path="url(#p.0)"><path fill="#ffffff" d="m0 0l48.0 0l0 48.0l-48.0 0z" fill-rule="evenodd"/><path fill="#ffffff" d="m41.466393 42.80308l-34.69152 0c-1.3255105 0 -2.5967312 -0.5265579 -3.5340085 -1.4638329c-0.9372773 -0.93727875 -1.4638344 -2.2085 -1.4638344 -3.534008l0 -24.988615c0 -2.0599365E-4 1.667738E-4 -3.7288666E-4 3.7240982E-4 -3.7288666E-4l44.686836 3.7288666E-4l0 0c2.0599365E-4 0 3.7002563E-4 1.6593933E-4 3.7002563E-4 3.7193298E-4l-3.7002563E-4 24.988243l0 0c0 2.760231 -2.2376099 4.997841 -4.9978447 4.997841z" fill-rule="evenodd"/><path stroke="#efefef" stroke-width="1.0" stroke-linejoin="round" stroke-linecap="butt" d="m41.466393 42.80308l-34.69152 0c-1.3255105 0 -2.5967312 -0.5265579 -3.5340085 -1.4638329c-0.9372773 -0.93727875 -1.4638344 -2.2085 -1.4638344 -3.534008l0 -24.988615c0 -2.0599365E-4 1.667738E-4 -3.7288666E-4 3.7240982E-4 -3.7288666E-4l44.686836 3.7288666E-4l0 0c2.0599365E-4 0 3.7002563E-4 1.6593933E-4 3.7002563E-4 3.7193298E-4l-3.7002563E-4 24.988243l0 0c0 2.760231 -2.2376099 4.997841 -4.9978447 4.997841z" fill-rule="evenodd"/><path fill="#f05850" d="m3.7419453 1.022937l40.75688 0c0.52119446 0 1.021038 0.20704317 1.3895798 0.5755825c0.3685379 0.3685392 0.5755806 0.8683858 0.5755806 1.389579l0 9.825573c0 2.0503998E-4 -1.6784668E-4 3.7193298E-4 -3.7002563E-4 3.7193298E-4l-44.686836 -3.7193298E-4l0 0c-2.0563602E-4 0 -3.7240982E-4 -1.66893E-4 -3.7240982E-4 -3.7288666E-4l3.7240982E-4 -9.825199l0 0c0 -1.0853288 0.87983274 -1.9651616 1.9651616 -1.9651616z" fill-rule="evenodd"/><path stroke="#efefef" stroke-width="1.0" stroke-linejoin="round" stroke-linecap="butt" d="m3.7419453 1.022937l40.75688 0c0.52119446 0 1.021038 0.20704317 1.3895798 0.5755825c0.3685379 0.3685392 0.5755806 0.8683858 0.5755806 1.389579l0 9.825573c0 2.0503998E-4 -1.6784668E-4 3.7193298E-4 -3.7002563E-4 3.7193298E-4l-44.686836 -3.7193298E-4l0 0c-2.0563602E-4 0 -3.7240982E-4 -1.66893E-4 -3.7240982E-4 -3.7288666E-4l3.7240982E-4 -9.825199l0 0c0 -1.0853288 0.87983274 -1.9651616 1.9651616 -1.9651616z" fill-rule="evenodd"/><path fill="#000000" fill-opacity="0.0" d="m12.01994 0.272537l25.82085 0l0 13.137908l-25.82085 0z" fill-rule="evenodd"/><path fill="#ffffff" d="m13.67619 2.576286l0 6.65625l-0.890625 0l0 -6.65625l0.890625 0zm4.3046427 -0.15625q1.109375 0 1.859375 0.578125q0.75 0.5625 0.890625 1.5781252l-0.890625 0q-0.140625 -0.68750024 -0.640625 -1.0468752q-0.484375 -0.375 -1.21875 -0.375q-1.0625 0 -1.671875 0.75q-0.59375095 0.75000024 -0.59375095 1.9531252q0 1.28125 0.59375095 2.03125q0.59375 0.75 1.671875 0.75q0.828125 0 1.34375 -0.515625q0.515625 -0.515625 0.578125 -1.40625l0.890625 0q-0.140625 1.296875 -0.90625 1.984375q-0.75 0.6875 -1.96875 0.6875q-1.4375 0 -2.265626 -0.9375q-0.8125 -0.953125 -0.8125 -2.53125q0 -1.546875 0.84375 -2.5156252q0.85937595 -0.984375 2.296876 -0.984375zm6.536606 0.15625l2.59375 6.65625l-0.96875 0l-0.734375 -2.0l-2.8125 0l-0.75 2.0l-0.90625 0l2.59375 -6.65625l0.984375 0zm-0.515625 0.796875l-1.125 3.1093752l2.25 0l-1.09375 -3.1093752l-0.03125 0zm4.653534 -0.796875l0 5.90625l3.531248 0l0 0.75l-4.406248 0l0 -6.65625l0.875 0z" fill-rule="nonzero"/><path fill="#ffffff" d="m28.481354 38.119366l0 0c0 -5.3525696 4.339115 -9.691681 9.691681 -9.691681l0 0c2.5703964 0 5.035511 1.0210838 6.853054 2.8386269c1.817543 1.817543 2.8386307 4.2826614 2.8386307 6.853054l0 0c0 5.3525696 -4.339115 9.691681 -9.691685 9.691681l0 0c-5.352566 0 -9.691681 -4.3391113 -9.691681 -9.691681z" fill-rule="evenodd"/><path fill="#b7b7b7" d="m7.530835 15.882975l3.4447498 0l0 3.8229027l-3.4447498 0z" fill-rule="evenodd"/><path fill="#b7b7b7" d="m13.534035 15.882975l3.4447498 0l0 3.8229027l-3.4447498 0z" fill-rule="evenodd"/><path fill="#b7b7b7" d="m19.537235 15.882975l3.4447498 0l0 3.8229027l-3.4447498 0z" fill-rule="evenodd"/><path fill="#b7b7b7" d="m25.540436 15.882975l3.4447498 0l0 3.8229027l-3.4447498 0z" fill-rule="evenodd"/><path fill="#b7b7b7" d="m31.543634 15.882975l3.4447498 0l0 3.8229027l-3.4447498 0z" fill-rule="evenodd"/><path fill="#b7b7b7" d="m37.546837 15.882975l3.444748 0l0 3.8229027l-3.444748 0z" fill-rule="evenodd"/><path fill="#b7b7b7" d="m7.530835 21.886175l3.4447498 0l0 3.8229027l-3.4447498 0z" fill-rule="evenodd"/><path fill="#b7b7b7" d="m13.534035 21.886175l3.4447498 0l0 3.8229027l-3.4447498 0z" fill-rule="evenodd"/><path fill="#b7b7b7" d="m19.537235 21.886175l3.4447498 0l0 3.8229027l-3.4447498 0z" fill-rule="evenodd"/><path fill="#b7b7b7" d="m25.540436 21.886175l3.4447498 0l0 3.8229027l-3.4447498 0z" fill-rule="evenodd"/><path fill="#b7b7b7" d="m31.543634 21.886175l3.4447498 0l0 3.8229027l-3.4447498 0z" fill-rule="evenodd"/><path fill="#b7b7b7" d="m37.546837 21.886175l3.444748 0l0 3.8229027l-3.444748 0z" fill-rule="evenodd"/><path fill="#b7b7b7" d="m7.530835 27.889374l3.4447498 0l0 3.8229046l-3.4447498 0z" fill-rule="evenodd"/><path fill="#b7b7b7" d="m13.534035 27.889374l3.4447498 0l0 3.8229046l-3.4447498 0z" fill-rule="evenodd"/><path fill="#b7b7b7" d="m19.537235 27.889374l3.4447498 0l0 3.8229046l-3.4447498 0z" fill-rule="evenodd"/><path fill="#b7b7b7" d="m25.540436 27.889374l3.4447498 0l0 3.8229046l-3.4447498 0z" fill-rule="evenodd"/><path fill="#b7b7b7" d="m7.530835 33.892574l3.4447498 0l0 3.8229027l-3.4447498 0z" fill-rule="evenodd"/><path fill="#b7b7b7" d="m13.534035 33.892574l3.4447498 0l0 3.8229027l-3.4447498 0z" fill-rule="evenodd"/><path fill="#b7b7b7" d="m19.537235 33.892574l3.4447498 0l0 3.8229027l-3.4447498 0z" fill-rule="evenodd"/><path fill="#b7b7b7" d="m25.540436 33.892574l3.4447498 0l0 3.8229027l-3.4447498 0z" fill-rule="evenodd"/><path fill="#b7b7b7" d="m31.543634 27.889374l3.4447498 0l0 3.8229046l-3.4447498 0z" fill-rule="evenodd"/><path fill="#b7b7b7" d="m37.546837 27.889374l3.444748 0l0 3.8229046l-3.444748 0z" fill-rule="evenodd"/><path fill="#f05850" d="m29.396822 38.201714l0 0c0 -4.8769493 3.9535465 -8.830496 8.830492 -8.830496l0 0c2.3419952 0 4.588066 0.93035316 6.2441025 2.5863914c1.6560402 1.6560383 2.5863953 3.9021091 2.5863953 6.2441044l0 0c0 4.8769455 -3.9535484 8.830494 -8.830498 8.830494l0 0c-4.8769455 0 -8.830492 -3.9535484 -8.830492 -8.830494z" fill-rule="evenodd"/><path fill="#ffffff" d="m31.255053 34.7385l1.4088497 -1.2212753l0 0c3.2142334 -2.7862835 8.07819 -2.4389935 10.863949 0.775692l0.076473236 0.08824921l0.98134995 -0.85069275l0.12473297 4.200981l-4.1399574 -0.72034836l0.98135376 -0.85069656l-0.076473236 -0.08824539l0 0c-1.8032951 -2.0809517 -4.9518623 -2.3057594 -7.0325165 -0.5021248l-1.4088516 1.2212753z" fill-rule="evenodd"/><path fill="#ffffff" d="m45.166443 41.23089l-1.1700706 1.283123l0 0c-2.669468 2.9273949 -7.205555 3.1353188 -10.131641 0.4644165l-0.08427429 -0.076927185l-0.81502914 0.89377594l-0.57240295 -3.8728752l3.9071083 0.2159729l-0.81502914 0.89377594l0.08427811 0.076927185l0 0c1.8941307 1.7289429 4.8304596 1.5943489 6.5584755 -0.30062866l1.1700706 -1.2831268z" fill-rule="evenodd"/></g></svg>