<?xml version="1.0" encoding="UTF-8"?><svg id="Layer_1" xmlns="http://www.w3.org/2000/svg" viewBox="0 0 156.03 79.97"><defs><style>.cls-1{fill:#6460aa;}.cls-2{fill:#f37021;}</style></defs><path d="M43.49,56.33c-1.58,2.63-3.47,6.43-3.01,10.7l30.76-22.23c4.68-2.44,7.98,1.13,4.26,5.27-4.12,4.59-17.57,12.18-23.41,16.58-2.08,1.57-4.81,3.12-6.11,5.39h86c-4.41-7.44-18.13-15.82-22.05-22.44-.79-1.33-1.39-2.3-.87-3.93.66-2.03,3.39-2.05,4.91-1.12l25,23.49,10.01-54.99-50.63,35.86c-7.32,4.11-13.18-2.76-18.38-7.35-10.21-9.02-19.34-20.3-29.5-29.51-2.36-.44-1.21,1.06-1.51,2.45-1.01,4.7-.82,16.07-7.05,13.11-2.34-1.66.46-15.01,1.36-17.79,1.91-5.92,5.05-8.1,11.21-8.79,29.14-3.25,64.17,2.38,93.94.07,6.3,1.58,7.87,4.01,7.57,10.4-.83,18.03-9.21,39.29-10.25,57.79-2.28,6.35-5.46,9.15-12.22,9.78-29.59,2.78-63.74-1.96-93.8-.27-3.22-.47-6.92-3.23-7.57-6.5-.56-2.83,2.4-12.39,3.46-15.59M45.91,52.45s-.28.43-.72,1.16M45.73,51.89l.18.56M33.49,54.04h-14.5v-6h25.5l1.24,3.85M141.99,8.04H56.99l36.33,35.86,48.67-35.86Z"/><path class="cls-2" d="M48.2,40.04H1.49c-1.98,0-1.99-6,0-6h46.71"/><path class="cls-2" d="M48.2,34.04h5.95c1.07,0,2,.75,2.22,1.79l.31,1.46c.15.71-.04,1.44-.52,1.98h0c-.43.49-1.05.76-1.7.76h-6.27"/><path class="cls-1" d="M4.49,70.04c-2.46-.69-3.78-4.64-.25-6.25,2.75-1.25,17.72-1.3,20.51,0,3.59,1.66,2.28,6.26.74,6.26-4.63,0-17.68.93-21,0Z"/><path class="cls-1" d="M9.49,24.04l-1.02-.98c-1.48-4.07,1.74-4.76,4.96-5.08,3.56-.35,16.6-1.26,16.6,3.56l-1.54,2.5H9.49Z"/></svg>